<svg version="1.1" id="Layer_1" xmlns="http://www.w3.org/2000/svg" x="0" y="0" viewBox="0 0 824.2 96" style="enable-background:new 0 0 824.2 96" xml:space="preserve"><style>.st0{fill:#d5a770;stroke:#d5a770;stroke-miterlimit:10}</style><path class="st0" d="M59.1 85.9c.3-1.5 7.7-28.6 10.6-45.6 2.9-17.1 5.5-32.2 2.5-32.2-2.9 0-11.1 6.5-24.1 24.2-13 17.9-16.6 26.3-18.6 26.3-3.6 0-.9-9.4 0-20.9.8-10.1 2.7-22.6-.4-22.6-2.7 0-10.4 10.1-14.1 24.9-3.3 13.3-3.7 24.6-1.7 26.9 1.4 1.7.2 2.2-1 .7-2.7-3.4-2.2-16.7.8-28.3 3.3-12 10.9-25.9 15.7-25.9 5.1 0 2.7 18.5 2.2 24.3-.7 6.6-3.1 19.1-1.4 19.1.2 0 7.3-13.1 16.7-25.4C55.8 18.9 66.7 5.8 72.1 5.8c5 0 3.5 13.2-.2 34.5-3.6 20.7-10 39.9-11.7 45.8-.2.9-1.4 1.3-1.1-.2zM81.3 48.8c-.4-.4-.8-.8-1.1-1.4-1.5-3.1 1.2-6.9 4.9-6.9 3.6 0 5.9 3.4 5.9 8.6v.2c.3 0 .7 0 1.1-.1 4.1-.3 11.8-2.3 15.3-3.6.6-.2 1 .7.6.8-1.8.7-11.3 3.8-16.2 4.2-.3.1-.7.1-.9.1-.7 8-6.6 14.4-10.4 14.4-3.7 0-4.7-6.4-1.4-12.8.7-1.3 1.5-2.5 2.2-3.5zm7.8 2c-2.2 0-4.6-.3-6.4-1.2-.7.9-1.4 2-2 3.1-3.1 6.1-2.2 11-.6 11 3.8.1 8.3-5.6 9-12.9zm-5.4-2.5c1.5.7 3.5 1 5.6 1v-.8c0-4.3-2.1-6.6-4.4-6.6-2.2 0-4.3 2.2-3.1 4.6.2.4.4.7.7 1 1.2-1.3 2.3-2.1 2.6-2.1.5 0 .7.2.7.6-.1.2-1 1-2.1 2.3z"/><path class="st0" d="M112.5 60.4c-1.2-1.5-3-5.3-5.4-11.6-.5-1-.7-1.6-.7-1.7 0-.3.2-.6.6-1.1.3-.2.6-.4.8-.4.1 0 .5.6 1 1.7l1.1 2.8c1.4 3.7 2.6 6.4 3.7 8 2.4-3.5 3.6-7.9 3.9-13.2 0-.9.1-1.6.3-2.2.2-.6.5-1 1.1-1.3 0-.1.1-.1.3-.1.5 0 1 .6 1.7 1.9v.2c0 .4-.2.7-.6 1.1-.3.3-.6.4-.8.4-.1 0-.2 0-.3-.1 0 .8-.1 1.7-.3 2.7l-.1.6c0 4.4 1.5 6.6 4.5 6.6s6.5-2.3 10.4-7c.4-.4.7-.6 1.1-.6.2 0 .4.1.4.4 0 .2-.1.5-.4.9-4.6 5.5-8.8 8.3-12.5 8.3-1.8 0-3.2-.8-4.1-2.3-.2-.4-.4-.8-.6-1.3-.7 2.4-2 4.7-3.9 6.9-.1.2-.4.4-.7.5l-.3.1c-.1-.1-.2-.1-.2-.2z"/><path class="st0" d="M136 52.1c.7 0 2.1-.2 4.1-.9 8-2.5 15.6-7.3 22.9-11.9 1.6-1 2.7-1.6 3.6-1.6 2.1 0 2.7 1.4 2.7 2.5 0 1-2.4 9.6-2.5 10.5 0 .2 0 .3.2.3.3 0 2.1-1 3.7-1.8 2.4-1.2 4.1-2.1 5.4-2.1 1.3 0 2.3 1 2.2 2.7-.3 5.1.8 9.4 3.1 9.6 1.8.2 5.5-2.2 7.2-5.1 1.1-1.7 2.2-1 1.1.9-2.2 4-6.7 6-9.2 5.8-2.7-.2-4.6-3.4-4.4-10.2.1-1.2 0-1.7-.2-1.9-.4-.2-1.4 0-2.9.8-1.4.7-5.9 2.9-6.6 2.9-.5 0-1.7-.6-1.7-1.2 0-.7 1.9-10.8 2-11.4.1-.5-.1-.7-.7-.7-.4 0-1.2.4-2.3 1.2-7.8 5.2-14.2 8.9-23.3 12.1-2.2.7-3.8 1.1-5 1.1-1.2 0-2.3-.8-2.3-2.2 0-.9.2-2.4.7-3.7.3-1.1.7-1.7 2.2-2 .4 0 .9.2.4 1.2-.7 1.5-1.2 3.1-1.3 4.4 0 .4.3.7.9.7zm1.1-14.1c.2-.4 1.1-1.2 1.4-1 .4.2.9 1.1.5 1.7-.5.7-1.3 1.3-1.7 1.2-.3-.3-.5-1.3-.2-1.9zm43.4 46.4c0-6.1 4-14.6 13.6-24.4 2.7-2.8 6-5.1 9.4-7-.2-4.5-1.5-6.9-3.6-6.9-1.2 0-2.6.9-3.8 1.8-1.7 1.4-3.4 3.1-5.1 3.1-3.3 0-4.1-4.7 1.3-7.3 3.4-1.6 5.8-.1 6.5.9.3 0 .7-.1 1.2-.1 2.5 0 5 2.4 5.5 7.4 9.3-4.8 19.2-6.7 22.3-6.7 1.2 0 1.6 1.4.4 1.4-3.3 0-13.2 1.7-22.6 7v.1c0 7.5-2.3 18-6.4 25-3.8 6.8-8.9 11.3-13.3 11.3-2.5.1-5.4-1.4-5.4-5.6zm23-29.5c-2.8 1.7-5.6 3.8-8 6.3-10 10.1-13.3 18.7-13.3 23.4 0 2.4 1 3.9 2.9 3.9 3.1 0 8.2-3.4 12.4-10.9 4-7 6-17.2 6-22.7zm-6-9.8c-1.2-.7-3.1-1.1-5.1.2-3.1 2-2.9 4.4-1.7 4.4.9 0 2.4-1.5 4.1-2.9.9-.6 1.7-1.3 2.7-1.7zM250 66c.2-5.1 1.2-20.4 3.7-33.7.6-3.1 1.2-5.9 1.7-8.3-4.3 0-6.7 0-7-1.1-.2-.7.7-1.1 1.4-.9.9.2 2.9.2 5.2.2h.7c2.4-10 4.3-13.4 5.5-13.4.7 0 1.6.6 1.4 1.3-.2 1-.9 1.7-1.8 3.6-.2.2-1.4 3.6-2.7 8.5h.1c2.9 0 4 .2 12.2.2 7.6 0 9.6-.4 9.9.5.2 1-3.9.9-10.1.9h-12.4c-.7 2.8-1.4 6-2 9.2-.7 4.1-2 11.3-3.1 20-.7 4.7-1.3 14.4-.8 18.4.4 3.1 1.1 3.5-.1 3.6-1.1.4-1.8-2.9-1.8-9z"/><path class="st0" d="M275.8 6.3c.7 0 .9 2 .7 2.7-.2 1-1.3 2.7-2.2 4.7-.2.4-2.3 8.6-3.9 16-2.3 10.4-3.9 20.3-4.5 24.8 4.7-3.1 7.5-5.2 9.3-5.3 1.6 0 1.7 1.3 1.7 3.1 0 2.2-.2 3.1 1.3 3.1 5.6 0 15.2-5.4 22.2-9.4 1-.5 1.9.6.4 1.3-9.1 5-15.4 9.6-22.3 9.7-2.4 0-3.6-1.7-3.6-3.7 0-1.2.2-2.1-.2-2.1-.8 0-5.1 2.5-8.3 4.6-.7.5-1.3 1-1.8 1s-.9-.9-.7-2.7c.7-5 2.2-14.7 4.5-25.4 3.9-17.9 6.1-22.4 7.4-22.4z"/><path class="st0" d="M302.3 56.8c-4.3.3-6.2-3.3-4.5-7.1 1.7-3.8 5-5.3 6.7-5 1.6.2 2.1 1.6 1.4 3.5-1 2.6-4.1 4.4-7 5.4.4 1.2 1.6 1.7 3 1.7 2.6 0 4.9-1.5 7.2-3.2.7-.6 1.3-.2.4.8-2 2.2-5.4 3.8-7.2 3.9zm-3.5-4.2c2.4-.8 5.3-3.1 6-5 .2-.7.2-1.5-.4-1.7-.9-.2-3.6.8-5 4.3-.5 1-.6 1.7-.6 2.4zM334 54.1c-.1 1.7.3 2.3.9 2.3 1.1 0 2.8-1.7 5.5-4.4 2.7-2.6 4-3.6 5.1-3.6 1 0 1.8.7 1.8 1.6 0 .7-.3 3.1-.3 3.6-.1 1 .1 1.2.4 1.2 1.1 0 2.5-1.3 3.6-2.8.8-1.1 1.5-2.2 1.7-2.9.5-1.1.7-1.5 1.1-1.5.7-.2.8.8 4.2.7 3.6-.2 9.8-2 11.7-2.7 1.1-.3 1.3.3.4.8-1.7 1-6.7 2.7-10.8 3-3.9.2-4.7-.4-4.9-.2-.2.1-.8 1.7-2.1 3.6-1.1 1.7-3.1 3.4-5.1 3.4-1.5 0-1.9-.9-1.9-2.1 0-1.3.4-2.9.4-3.9 0-.3 0-.7-.3-.7-.7 0-1 .8-4.2 3.8-3.6 3.5-5 4.5-6.2 4.6-2 .3-2.7-1.7-2.7-3 0-2.3 1.7-7.5 3.6-11.7 1.5-3.1 2.2-4.1 2.8-4.1s1 .1.6.7c-2.7 4.9-5.3 11.8-5.3 14.3z"/><path class="st0" d="M385 56.3c-2 0-3.1-2.8-.7-7.6.8-1.7 3-4.5 3-6 0-.9-.3-1.4-2.1-2.1-.9-.3-1.6-.8-2-1.5-2.2 3-4.7 4.7-7.9 5.5.2 1.2.2 2.6.2 4-.8 9.1-5.1 13.2-9 12.9-2.2-.2-3.5-2.2-3.2-5.1.3-3 1.8-6.5 4.1-8.9.8-.9 1.7-1.7 2.7-1.6 1.3.2.3.8-.6 1.9-3 3-4.4 6-4.6 8.8-.2 2.2.6 3.4 1.7 3.6 2.7.3 6.7-4.7 7.3-12.2.1-1.2.1-2.2-.1-3.1-.9.1-1.8.1-2.8.1-2.6 0-4.6-1.4-4.4-3.6.2-1.3 1.5-2.6 3.4-2.6 2.3 0 4.1 1.7 5 4.4 3.1-.7 5.8-2.6 7.6-5.5-.1-.5-.1-1.1.1-1.7.3-1.6 1.6-2.2 2.2-2.1.7.2 1.1.7 1.1 1.2 0 1-.5.6-1.6 1.7-.1.3-.1.5-.1.6 0 .8.9 1.4 1.6 1.7 3.1 1.2 3.6 1.9 3.6 2.9 0 2.1-2.5 4.4-3.6 6.9-1.7 3.4-2.3 5.7-.5 5.7 5.1 0 11-10.4 21-34.1.7-1.6 1.6-1.5.9.3-7.4 21.1-15.2 35.5-22.3 35.5zm-11.5-12.8c-.7-2.2-2-3.3-3.6-3.4-.9 0-1.7.5-1.8 1.4-.1 1.1.7 2.2 3.1 2.2.8-.1 1.5-.2 2.3-.2z"/><path class="st0" d="M398.6 67.2c1-14.7 3.4-27.3 6-38.9 4.1-17.9 6.1-22.4 7.5-22.4.7 0 .9 2 .7 2.7-.2 1-1.3 2.7-2.2 4.7-.2.4-2.4 8.6-4 16-1.3 6.2-5 23.2-6.4 38.4-.7 7.6.7 8.5-.2 8.6-1.1.3-1.9-2.8-1.4-9.1zM435 24.3l2-5.4c3.3-8.9 3.6-10 4.4-10 .7 0 2 1.7 1.8 2.5-.1.4-2.2 4.5-5.5 10.4-3.4 10.2-7.7 22.3-11.4 35.6-4.1 14.4-4.4 20.5-3.6 20.6.7.2-.2 1.5-1.2 1-1.2-.7-.6-7.4 3.5-22.5 2.6-9.5 5.4-18.5 8-26.3-3 5.1-6.3 10.6-9.5 15.7 1.2.6 2.2 1.2 2.7 1.6.5.5.1 1.1-.6.7l-2.8-1.2c-9.8 15.3-11 17.2-12.6 17.2-1.3 0-2.7-1.9-2.7-4.6 0-6.6 5-14.7 11.7-14.7 1 0 2.2.2 3.1.6 4.3-7.3 9.2-15.3 12.7-21.2zm-13.5 22.4c-.5-.1-1-.2-1.5-.2-6.2 0-10.7 7.7-10.7 13.1 0 1.4.1 3.1.8 3.1 1 .1 8.4-11 11.4-16zM491.9 53.7c.1-1.2.3-3.1.8-4.5.2-.4.2-.7.4-1-3.6.3-8-.7-12-3.3-.2 2.9-1.1 5.2-2.7 7.9-1.1 1.7-3.1 3.5-5 3.5-1.7 0-2.1-1.2-1.8-3 .2-1 .6-2.2.6-3.1 0-.4-.2-.6-.5-.6-.7 0-1.7 1.7-4.9 4.6-3.7 3.4-4.9 4.5-6.1 4.6-2 .3-2.6-1.7-2.6-3.1 0-2.2 1.2-8.5 3.1-12.6 1.5-3.1 2.2-4.1 2.8-4.1.6 0 1 0 .6.7-2.7 4.7-4.9 12.6-5 15-.1 1.7.3 2.4.9 2.4 1.1 0 2.8-1.7 5.6-4.4 2.7-2.6 4.3-4.4 5.4-4.4 1 0 1.8.7 1.8 1.6 0 .7-.3 3-.3 3.6-.1.9.1 1.2.4 1.2.8 0 2.4-1 3.6-2.7 1.7-2.6 2.6-5.8 2.5-8.3l-.2-.2c-.4-.4-1.2-1.2-1.2-2.1 0-1 1.2-1.7 1.9-1.7 1 0 1.2 1.2 1.2 2.8v1.2c3.6 2.3 9.7 3.4 13.3 3.1.4.1.9.3 1 .6.1.2.1.5-.1.9-1.2 2.6-1.6 4-1.7 5.3-.2 1.4.3 2.3 1.1 2.1 1-.2.7.7 0 .9-2 .6-3-.8-2.9-2.9zm4.1-14.6c.2-.5.7-1.5 1.2-1.3.7.1 1.3 1.2 1.1 1.9-.2.7-1.3 1.7-1.7 1.5-.5-.1-.8-1.6-.6-2.1zM536.6 13.4c-11 25.1-25.8 46.4-31.9 46.3-3.1-.1-3.6-4 .9-23.7 1-4.6 2-8.5 2.9-11.8-2.1-.1-4.4-.2-7-.3-2.7-.1-3.4-.4-4.3-.4-.9 0-.4-.6.2-.7 1.2-.3 3.8-.1 7.1-.1.2 0 1.5.1 4.3.2 2.4-8.4 4.1-12.3 5.1-12.3.7 0 1.2 1.5.7 3-.3.9-2.1 3.6-3 5.2l-1.1 4.1h5.8c7.6 0 8-.3 8.1.5.2 1.1-2.2.9-8.4.9h-1.8c-1 0-2.4.1-4.1 0-.8 3.6-1.9 8.4-2.7 12.3-2.8 12.8-4.6 21.8-2.5 21.8 5.4 0 24.4-30.3 30.7-45.4.7-1.5 1.6-.9 1 .4z"/><path class="st0" d="M538.2 6.3c.7 0 .9 2 .7 2.7-.2 1-1.3 2.7-2.2 4.7-.2.4-2.3 8.6-3.9 16-2.3 10.4-3.9 20.3-4.5 24.8 4.7-3.1 7.5-5.2 9.3-5.3 1.6 0 1.7 1.3 1.7 3.1 0 2.2-.2 3.1 1.3 3.1 5.6 0 15.2-5.4 22.2-9.4 1-.5 1.9.6.4 1.3-9.1 5-15.4 9.6-22.3 9.7-2.4 0-3.6-1.7-3.6-3.7 0-1.2.2-2.1-.2-2.1-.8 0-5.1 2.5-8.3 4.6-.7.5-1.3 1-1.8 1s-.9-.9-.7-2.7c.7-5 2.2-14.7 4.5-25.4 4-17.9 6.1-22.4 7.4-22.4zM578.1 47.2c2.7-2.2 4.7-2.7 6.1-2.7 1.9 0 1.7 2.1.9 1.7-1.1-.4-3.1-.1-5.8 1.9-2.7 2-3.6 4-3.6 5.4.1 1.7 2.7 2.5 5.4 2.2 6.1-.7 19.6-6.9 25.5-10 .4-.2 2.2-.2.8.7-6.2 4-20.2 9.8-25.8 10.6-3.9.6-7.2-.1-7.6-2.9-.2-1.9 1.1-4.4 4.1-6.9z"/><path class="st0" d="M608.8 52.1c.8-1.8 1.4-2.9 1.4-3.3 0-.3-.2-.6-2-1.2-2.2-.8-2.6-3-2.2-4.6.7-3 3.1-3.9 4.4-3.6.7.2 1.6 1.1 1.5 1.7-.2 2.2-1.6 3.6-3.8 4.8.2.2.4.3.7.4 3.1 1.2 3.5 1.5 3.5 2.2 0 .7-.9 2-2 4.3-1.2 2.6-1.3 3.6.1 3.8 4.6.6 16.5-3.1 25.2-10.6.8-.7 1.8-.2 1.1.5-8.8 8.4-22.6 12.5-26.8 11.9-1.8-.3-3.1-2.2-1.1-6.3zm-1.1-7.3c2.4-1.5 3-2.7 3.1-3.9 0-.2 0-.2-.2-.3-.8-.2-2.4 1.4-2.8 2.7-.2.5-.3 1-.1 1.5z"/><path class="st0" d="M632.4 49.7c1.7-3.8 5-5.3 6.7-5 1.6.2 2.1 1.6 1.4 3.5-1 2.6-4.1 4.4-7 5.4.3 1.2 1.4 1.7 2.9 1.7 3.8-.3 9.1-3 24.1-9.5 1.1-.5 1.3.6.7.8-12.6 5.6-19.7 9.9-24.3 10.3-4.4.2-6.3-3.4-4.5-7.2zm.9 2.9c2.4-.8 5.3-3.1 6-5 .2-.7.2-1.5-.4-1.7-.9-.2-3.6.8-5 4.3-.5 1-.6 1.7-.6 2.4z"/><path class="st0" d="M696.6 25.7h-1.9c-.7 2.8-1.2 5.9-1.8 9.2-.7 4.1-1.9 11.3-3.1 20-.6 4.7-1.4 16.5-.9 20.5.4 3.1 1 3.5-.2 3.7-1 .2-1.8-3.1-1.7-9.3.2-5.1 1.4-22.4 3.9-35.8.5-3 1.1-5.8 1.6-8.3h-3.7c-9 18.6-17.1 32.1-22.9 32.1-4.5 0-1.1-6.2-1.7-6.9-.2-.2-.7 0-3.3 1.4-2.4 1.3-5.1 2.5-6 2.5-1.2 0-2-.7-2-1.3 0-1.5 1.1-3.6 4.1-6 2.7-2 4.3-2.4 5.8-2.4 1.9 0 3 2.9 2.2 3-.7 0-1.1-1.7-1.9-1.7-.8 0-2.5.6-4.9 2.2-2.1 1.4-3.7 3.8-3.7 4.5 0 .2.1.2.2.2.7 0 2.2-.6 4.6-1.7 3.1-1.5 5.9-2.8 6.2-2.8.3 0 1 .2 1 .8 0 1.1-2.9 7-.7 7 4.9 0 13.4-15.2 21.4-30.9-14.4.1-25.6.1-25.8-1.1-.2-.7 2.2-1.7 2.8-1.3.8.5 1.4.7 3.8.7.2 0 10.9.2 20 .2 2.2-4.1 4.1-8.3 6.1-12.2 1.5-3 1.8-4.2 3.9-3.2.7.2 1.7.9 1.6 1.7-.2 1-1.1.7-1.7 3.1-.7 1.8-1.7 5.6-2.7 10.5h1.9c7.6 0 9.6-.3 9.8.5.1 1.2-4 1.1-10.3 1.1zm-1.6-13c-1.8 4.1-3.6 7.9-5.4 11.6h3.3c1.2-5.7 2.2-9.9 3.1-12 .2-.7-.3-1.3-1 .4zM727.5 46.4c-1 .2-5 2.5-14.5 5.7-7.5 2.6-9.4 3-10.8 3-2.2 0-2.8-1.5-2.8-2.8 0-1.2.3-3.4.8-4.8.3-1.2.7-1.8 2.2-2.1.4-.1.9.4.4 1.3-1.2 2.6-1.5 4.1-1.7 5.5-.1 1 .3 1.5.7 1.5 1.1 0 3.4-.2 10.4-2.7 8.1-2.9 14.3-5.5 14.8-5.5.5-.1.9.7.5.9zm-24.1-9.1c.2-.5.8-1.4 1.3-1.3.7.2 1.2 1.2 1.1 1.9-.2.7-1.3 1.7-1.8 1.6-.4-.2-.7-1.6-.6-2.2z"/><path class="st0" d="M732 60.4c-1.2-1.5-3-5.3-5.4-11.6-.5-1-.7-1.6-.8-1.7 0-.3.2-.6.6-1.1.3-.2.6-.4.8-.4.1 0 .5.6 1 1.7l1.1 2.8c1.4 3.7 2.6 6.4 3.7 8 2.4-3.5 3.6-7.9 3.9-13.2 0-.9.1-1.6.3-2.2.2-.6.5-1 1.1-1.3 0-.1.1-.1.3-.1.5 0 1 .6 1.7 1.9v.2c0 .4-.2.7-.6 1.1-.3.3-.6.4-.8.4-.1 0-.2 0-.3-.1 0 .8-.1 1.7-.3 2.7l-.1.6c0 4.4 1.5 6.6 4.5 6.6s6.5-2.3 10.4-7c.4-.4.7-.6 1.1-.6.2 0 .4.1.4.4 0 .2-.1.5-.4.9-4.6 5.5-8.8 8.3-12.5 8.3-1.8 0-3.2-.8-4.1-2.3-.3-.4-.4-.8-.6-1.3-.7 2.4-2 4.7-3.9 6.9-.1.2-.4.4-.8.5l-.3.1c.2-.1.1-.1 0-.2z"/><path class="st0" d="M755.5 51.4c-.5 2.7 0 3.6.1 3.6 1.5 0 6-4.9 11.2-13.6 3.8-6.4 8-18.2 11.8-25.4.7-1.3 2.7-2.4 1.1.7-3.2 6-7.7 18.8-12 26.1-4.9 8.3-9.5 13.3-12.1 13.3-1 0-1.8-1.2-1.8-4.6 0-.7.4-4.1.3-4.4 0-.5-.2-1.5.2-1.7 1-.4 2.2.5 2.2 1.2s-.9 4.2-1 4.8zm1.6-18.1c0-.6 1-1.5 1.4-1.5.3 0 1.1.4 1.1 1.2 0 .7-1.2 2.1-1.7 2.1-.4 0-.8-1.3-.8-1.8z"/><path class="st0" d="M767.1 68.1c.2-5.1 1.4-22.5 3.9-35.8.6-3.1 1.2-5.8 1.7-8.3-16.2 0-17.6.1-18-1.2-.2-.7 2.2-1.7 2.8-1.3.8.5 1.4.7 3.8.7l11.8.1c2.7-10.6 5.1-14.9 6.3-14.9.7 0 1.2 2 1 2.7-.2 1-.6-.4-1.5 1.6-.2.2-1.9 4.8-3.5 10.6 2.9 0 4 .2 12.2.2 7.6 0 9.6-.4 9.9.5.2 1-3.9.9-10.1.9H775c-.7 3-1.5 6.1-2 9.2-.7 4.1-2 11.3-3.1 20-.7 4.7-1.5 16.5-1 20.5.4 3.1 1.1 3.5-.1 3.6-1 .3-1.7-3-1.7-9.1z"/><path class="st0" d="M789.1 52.3c-2.9 3.1-5.8 6-7.7 6-1.2 0-2.2-1.1-1.7-3 .6-2.1 1.3-4.7 1.9-6.5.7-2.2.2-3.1 1.1-3.2.8-.1 1.2.6 1.2.8 0 .7-.2 1.3-1 3.2-.6 1.7-1.4 4.1-1.6 4.8-.3 1.4-.2 1.9.3 1.9 1 0 3.9-2.1 6.5-5 4.1-4.5 5.6-6.5 7.5-6.5 2.1 0 2.5 3.6 2.6 6.1 6.5-3.8 12.6-6 14.2-6 1.2 0 1.6 1.4.4 1.4-1.7 0-8 2.2-14.6 6.4-.2 7.5-3 19.2-6.8 26-3.8 6.7-8.9 11.3-13.3 11.3-2.2 0-5.2-1.5-5.2-5.7 0-6.1 4.9-15.4 14.5-25.2 2.7-2.8 6-5.2 9.2-7.2-.1-2.9-.2-5-1.3-5-1.4.3-3.4 2.4-6.2 5.4zm7.5 1.7c-2.8 1.8-5.5 4-8 6.5-10 10.1-14 19.6-14 24.3 0 2.4 1 3.9 2.9 3.9 3.1 0 8.2-3.4 12.4-10.9 3.9-6.8 6.6-18.2 6.7-23.8z"/></svg>